<svg fill="#637381" height="200px" width="200px" version="1.1" id="Capa_1" xmlns="http://www.w3.org/2000/svg"
     xmlns:xlink="http://www.w3.org/1999/xlink" viewBox="-230.98 -230.98 846.93 846.93" xml:space="preserve"
     stroke="#637381" stroke-width="19.24855" transform="rotate(0)"><g id="SVGRepo_bgCarrier" stroke-width="0" transform="translate(0,0), scale(1)"><rect x="-230.98" y="-230.98" width="846.93" height="846.93" rx="211.7325" fill="#637381" opacity="0.4" strokewidth="0"></rect></g>
    <g id="SVGRepo_tracerCarrier" stroke-linecap="round" stroke-linejoin="round" stroke="#CCCCCC"
       stroke-width="1.539884"></g>
    <g id="SVGRepo_iconCarrier"> <g> <g id="Sign_Out"> <path
            d="M180.455,360.91H24.061V24.061h156.394c6.641,0,12.03-5.39,12.03-12.03s-5.39-12.03-12.03-12.03H12.03 C5.39,0.001,0,5.39,0,12.031V372.94c0,6.641,5.39,12.03,12.03,12.03h168.424c6.641,0,12.03-5.39,12.03-12.03 C192.485,366.299,187.095,360.91,180.455,360.91z"></path>
        <path d="M381.481,184.088l-83.009-84.2c-4.704-4.752-12.319-4.74-17.011,0c-4.704,4.74-4.704,12.439,0,17.179l62.558,63.46H96.279 c-6.641,0-12.03,5.438-12.03,12.151c0,6.713,5.39,12.151,12.03,12.151h247.74l-62.558,63.46c-4.704,4.752-4.704,12.439,0,17.179 c4.704,4.752,12.319,4.752,17.011,0l82.997-84.2C386.113,196.588,386.161,188.756,381.481,184.088z"></path> </g>
        <g> </g>
        <g> </g>
        <g> </g>
        <g> </g>
        <g> </g>
        <g> </g> </g> </g></svg>
